<?xml version="1.0" standalone="no"?> 
<!DOCTYPE svg PUBLIC "-//W3C//DTD SVG 1.1//EN" "http://www.w3.org/Graphics/SVG/1.1/DTD/svg11.dtd" >
<svg xmlns="http://www.w3.org/2000/svg">
<defs>
  <font id="icons" horiz-adv-x="120">
    <font-face font-family="icons"
      units-per-em="1000" ascent="1000"
      descent="0" />
    <missing-glyph horiz-adv-x="0" />
    <glyph glyph-name="arrow-bottom"
      unicode="&#xE001;"
      horiz-adv-x="1333.3333333333333" d="M538.3333333333334 77.6666666666667C608.8333333333334 -26 724.5 -26 795 77.6666666666667L1294.9999999999998 811.3333333333334C1365.6666666666667 915 1335.8333333333333 1000 1229.3333333333333 1000H104.0000000000001C-2.6666666666666 1000 -32.3333333333332 915 38.3333333333334 811.3333333333334L538.3333333333334 77.6666666666667z" />
    <glyph glyph-name="arrow-donw"
      unicode="&#xE002;"
      horiz-adv-x="913.0434782608696" d="M862.7608695652175 277.217391304348A32.608695652173914 32.608695652173914 0 0 1 830.1521739130435 244.608695652174V107.8260869565218H82.8913043478261V244.608695652174A32.608695652173914 32.608695652173914 0 0 1 17.6739130434783 244.608695652174V75.2173913043479C17.6739130434783 57.2173913043478 32.2391304347827 42.6086956521739 50.2826086956522 42.6086956521739H862.7608695652175A32.608695652173914 32.608695652173914 0 0 1 895.3695652173914 75.2173913043479V244.608695652174A32.608695652173914 32.608695652173914 0 0 1 862.7608695652175 277.217391304348zM433.4565217391305 194.5217391304348A32.52173913043478 32.52173913043478 0 0 1 479.5869565217391 194.5217391304348L711.4130434782609 426.3478260869565A32.565217391304344 32.565217391304344 0 1 1 665.2826086956521 472.4347826086957L489.1086956521739 296.304347826087V967.3913043478262A32.608695652173914 32.608695652173914 0 0 1 423.8913043478261 967.3913043478262V296.3043478260869L247.7608695652175 472.4347826086955A32.608695652173914 32.608695652173914 0 0 1 201.6304347826087 426.3478260869564L433.4565217391305 194.5217391304347z" />
    <glyph glyph-name="arrow-left"
      unicode="&#xE003;"
      horiz-adv-x="1285.7142857142858" d="M75.0357142857142 473.9285714285714A80.42857142857143 80.42857142857143 0 0 0 75.0357142857142 536C78.1785714285713 543.5 83.2499999999999 549.7857142857142 88.392857142857 555.9285714285713C89.892857142857 557.7857142857142 90.6071428571428 560.0714285714284 92.2499999999999 561.7857142857142L507.0357142857143 976.4285714285714A80.5 80.5 0 0 0 620.7499999999999 976.4285714285714C652.0357142857142 945 652.0357142857142 894.1428571428571 620.7499999999999 862.7857142857142L343.1071428571428 585.2857142857142H1210.6785714285716A80.35714285714288 80.35714285714288 0 0 0 1210.6785714285716 424.5714285714285H343.1071428571428L620.7499999999999 147.0714285714285C652.0357142857142 115.6428571428571 652.0357142857142 64.7142857142856 620.7499999999999 33.3571428571428C605.0357142857142 17.642857142857 584.4642857142856 9.7857142857141 563.892857142857 9.7857142857141C543.3214285714286 9.7857142857141 522.7499999999999 17.642857142857 507.0357142857141 33.3571428571428L92.2499999999999 448.0714285714286C89.8214285714285 450.5714285714286 88.6785714285713 453.9285714285713 86.5357142857142 456.6428571428571C82.3214285714285 462.2142857142857 77.7499999999999 467.3571428571429 75.0357142857142 473.9285714285714" />
    <glyph glyph-name="arrow-right"
      unicode="&#xE004;"
      horiz-adv-x="1285.7142857142858" d="M1210.6785714285713 473.9285714285714A80.42857142857143 80.42857142857143 0 0 1 1210.6785714285713 536A79.85714285714288 79.85714285714288 0 0 1 1197.3214285714284 555.9285714285713C1195.8214285714284 557.7857142857142 1195.107142857143 560.0714285714284 1193.4642857142858 561.7857142857142L778.6785714285716 976.4285714285714A80.5 80.5 0 0 1 664.9642857142858 976.4285714285714A80.5 80.5 0 0 1 664.9642857142858 862.7857142857142L942.607142857143 585.2142857142857H75.0357142857143A80.35714285714288 80.35714285714288 0 0 1 75.0357142857143 424.5H942.607142857143L664.9642857142858 147A80.64285714285715 80.64285714285715 0 0 1 664.9642857142858 33.2857142857142C680.6785714285716 17.5714285714284 701.25 9.7142857142857 721.8214285714286 9.7142857142857C742.3928571428572 9.7142857142857 762.9642857142858 17.5714285714284 778.6785714285714 33.2857142857142L1193.4642857142858 447.9999999999999C1195.892857142857 450.5 1197.0357142857144 453.8571428571428 1199.1785714285713 456.5714285714286C1203.392857142857 462.1428571428571 1207.9642857142858 467.2857142857142 1210.6785714285713 473.8571428571428" />
    <glyph glyph-name="bille"
      unicode="&#xE005;"
      horiz-adv-x="1764.705882352941" d="M882.3529411764705 188.3529411764706A321.6470588235294 321.6470588235294 0 1 0 882.3529411764705 831.6470588235294A321.6470588235294 321.6470588235294 0 0 0 882.3529411764705 188.3529411764706M1705.8823529411764 1000H58.8235294117647A58.8235294117647 58.8235294117647 0 0 1 0 941.1176470588236V78.8235294117648A58.8235294117647 58.8235294117647 0 0 1 58.8235294117647 20H1705.8823529411764A58.8235294117647 58.8235294117647 0 0 1 1764.705882352941 78.8235294117648V941.1176470588236A58.8235294117647 58.8235294117647 0 0 1 1705.8823529411764 1000" />
    <glyph glyph-name="block-2"
      unicode="&#xE006;"
      horiz-adv-x="666.6666666666667" d="M631.0833333333335 886.7666666666667C648.0833333333335 879.9 661.9833333333333 859.2666666666667 661.9833333333333 840.9333333333333V173.7999999999999C661.9833333333333 155.4666666666666 648.0833333333333 134.8666666666666 631.0833333333335 127.9333333333332L364.2166666666668 19.8666666666664C347.2500000000001 12.9666666666665 319.4166666666668 12.9666666666665 302.4500000000002 19.8666666666664L35.5833333333333 127.9333333333333C18.5833333333333 134.8666666666666 4.6833333333333 155.4999999999999 4.6833333333333 173.8333333333333V840.9333333333333C4.6833333333333 859.2666666666667 18.5833333333333 879.9 35.5833333333333 886.7666666666667L302.4500000000001 994.8666666666666C319.4166666666668 1001.7333333333333 347.2500000000001 1001.7333333333333 364.2166666666668 994.8666666666666L631.0833333333335 886.7666666666667z" />
    <glyph glyph-name="block-3"
      unicode="&#xE007;"
      horiz-adv-x="692.3076923076923" d="M644.6346153846152 809.3846153846154A28.846153846153843 28.846153846153843 0 0 1 615.7884615384614 780.5384615384615V203.3076923076924L346.173076923077 94.0769230769232L76.5192307692308 203.3076923076924V830.8461538461538L346.1730769230769 940L589.980769230769 841.2307692307693A28.96153846153846 28.96153846153846 0 0 1 627.5576923076922 857.1923076923077A28.923076923076923 28.923076923076923 0 0 1 611.6346153846152 894.7692307692307L356.9807692307693 997.8461538461538A28.461538461538467 28.461538461538467 0 0 1 335.3653846153847 997.8461538461538L36.8653846153845 877.0384615384615A28.846153846153843 28.846153846153843 0 0 1 18.826923076923 850.2692307692307V183.8461538461539C18.826923076923 172.0769230769231 25.9807692307692 161.5384615384617 36.8653846153845 157.1153846153847L335.3653846153847 36.2307692307693A28.461538461538467 28.461538461538467 0 0 1 356.9807692307693 36.2307692307693L655.4423076923076 157.1153846153847A28.884615384615387 28.884615384615387 0 0 1 673.4807692307693 183.8461538461539V780.5769230769231A28.846153846153843 28.846153846153843 0 0 1 644.6346153846152 809.4230769230769zM521.6346153846154 440.9615384615385L345.8269230769231 369.7307692307693L169.9423076923077 440.9615384615385A28.884615384615387 28.884615384615387 0 0 1 148.3269230769231 387.5L334.9807692307691 311.8846153846154C335.3653846153846 311.7307692307693 335.7115384615385 311.7692307692307 336.0576923076923 311.6538461538461A29.192307692307693 29.192307692307693 0 0 1 345.8269230769231 309.7692307692307C349.1730769230769 309.7692307692307 352.4423076923076 310.5384615384616 355.5576923076923 311.6923076923078C355.9038461538462 311.7692307692307 356.2884615384615 311.7307692307693 356.6346153846154 311.8846153846154L543.25 387.4615384615385A28.884615384615387 28.884615384615387 0 0 1 559.2115384615383 425.0384615384616A28.923076923076923 28.923076923076923 0 0 1 521.6346153846152 440.9615384615385zM559.1730769230769 764.2307692307692A28.923076923076923 28.923076923076923 0 0 1 521.5961538461538 780.1538461538462L345.8269230769231 708.9230769230769L169.9423076923077 780.1538461538462A28.884615384615387 28.884615384615387 0 0 1 148.2884615384614 726.6923076923076L334.9807692307693 651C335.3653846153847 650.8461538461538 335.75 650.9230769230769 336.0576923076923 650.8076923076924A28.076923076923073 28.076923076923073 0 0 1 345.7884615384616 648.8846153846154C349.173076923077 648.8846153846154 352.4038461538463 649.6538461538461 355.5192307692309 650.8076923076924C355.9038461538462 650.9230769230769 356.2884615384616 650.8461538461538 356.5961538461539 651L543.25 726.6153846153846A28.884615384615387 28.884615384615387 0 0 1 559.1730769230769 764.1923076923077z" />
    <glyph glyph-name="block"
      unicode="&#xE008;"
      horiz-adv-x="666.6666666666667" d="M631.0833333333335 886.7333333333333C648.0833333333335 879.9 661.9833333333333 859.2666666666667 661.9833333333333 840.9V173.7999999999999C661.9833333333333 155.4666666666666 648.0833333333333 134.8666666666666 631.0833333333335 127.9666666666666L364.2166666666668 19.8333333333333C347.2500000000001 12.9666666666666 319.4166666666668 12.9666666666666 302.4500000000002 19.8333333333333L35.5833333333333 127.9999999999999C18.5833333333333 134.8666666666666 4.6833333333333 155.4999999999999 4.6833333333333 173.7999999999999V840.9C4.6833333333333 859.2333333333333 18.5833333333333 879.9 35.5833333333333 886.7333333333333L302.4500000000001 994.8333333333334C319.4166666666668 1001.7333333333333 347.2500000000001 1001.7333333333333 364.2166666666668 994.8333333333334L631.0833333333335 886.7333333333333z" />
    <glyph glyph-name="close"
      unicode="&#xE009;"
      horiz-adv-x="1000" d="M941.875 223.7500000000001L632.5416666666667 533L941.7916666666669 842.25A93.74999999999999 93.74999999999999 0 0 1 809.2916666666667 974.8333333333334L499.9583333333335 665.6666666666667L190.7916666666668 974.8333333333334A93.74999999999999 93.74999999999999 0 0 1 58.2083333333335 842.3333333333334L367.3750000000001 533L58.1250000000001 223.7500000000001A93.74999999999999 93.74999999999999 0 0 1 190.6250000000001 91.1666666666669L499.9583333333334 400.4166666666669L809.2916666666667 91.1666666666669A93.74999999999999 93.74999999999999 0 0 1 941.875 223.6666666666668" />
    <glyph glyph-name="corbat"
      unicode="&#xE00A;"
      horiz-adv-x="500.00000000000006" d="M477.15 195.3C491.4833333333333 206.7666666666668 497.9166666666666 230.2000000000001 491.5166666666667 247.3666666666667L384.0833333333334 535.0333333333334C377.6500000000001 552.2333333333333 378.6500000000001 579.9333333333334 386.2833333333334 596.6000000000001L465.1833333333332 769.0000000000001C472.85 785.6666666666667 468.0833333333334 809.5666666666667 454.6833333333333 822.0666666666667L274.3500000000001 990.6333333333334A36.33333333333334 36.33333333333334 0 0 1 225.6833333333334 990.6333333333334L45.35 822.0666666666666C31.8833333333334 809.5666666666666 27.15 785.6666666666666 34.7833333333334 769L113.6833333333334 596.5999999999999C121.3500000000001 579.9333333333333 122.3500000000001 552.2333333333333 115.8833333333334 535.0666666666666L8.4833333333334 247.3333333333334C2.0833333333334 230.1666666666667 8.55 206.7333333333334 22.85 195.2666666666667L223.9833333333334 34.1999999999999C238.3166666666667 22.7333333333332 261.7166666666667 22.7333333333332 276.0166666666667 34.1999999999999L477.15 195.2666666666667z" />
    <glyph glyph-name="edit"
      unicode="&#xE00B;"
      horiz-adv-x="1000" d="M292 365.5555555555556L365.5555555555556 292L267.5555555555556 267.5555555555556L292 365.5555555555556zM591.4444444444445 751.9555555555555A22.2 22.2 0 1 1 622.8666666666667 720.5333333333333A69.13333333333334 69.13333333333334 0 0 0 720.5111111111112 720.5333333333333A69.17777777777778 69.17777777777778 0 0 0 720.5111111111112 622.8666666666668L409.0222222222222 311.3777777777779L311.3555555555556 409.0444444444445L555.5555555555555 653.2A22.22222222222222 22.22222222222222 0 0 1 524.1333333333333 684.6222222222223L264.2222222222223 424.7555555555556C263.8666666666667 424.4000000000001 263.7333333333334 423.9111111111112 263.4222222222222 423.5333333333334A21.044444444444444 21.044444444444444 0 0 1 260.9333333333334 419.8444444444445A23.26666666666667 23.26666666666667 0 0 1 259.0888888888889 415.9333333333334C258.9111111111112 415.4000000000001 258.5111111111111 415 258.3777777777778 414.4222222222222L215.4888888888889 242.4222222222222A22.22222222222222 22.22222222222222 0 0 1 242.4222222222222 215.4888888888888L414.4222222222222 258.3777777777778C414.9111111111111 258.5333333333332 415.3111111111111 258.8888888888889 415.7777777777779 259.0444444444444A21.77777777777778 21.77777777777778 0 0 1 419.7777777777779 260.9555555555555C421.1111111111111 261.711111111111 422.3555555555556 262.4222222222222 423.488888888889 263.3999999999999C423.8666666666667 263.7555555555555 424.3777777777778 263.8888888888888 424.7333333333334 264.2444444444443L751.9555555555555 591.4444444444443A113.64444444444445 113.64444444444445 0 0 1 751.9555555555555 751.9555555555553A113.66666666666667 113.66666666666667 0 0 1 591.4444444444445 751.9555555555553zM500 44.4444444444445C248.8 44.4444444444445 44.4444444444444 248.8 44.4444444444444 500S248.8 955.5555555555557 500 955.5555555555557S955.5555555555557 751.2 955.5555555555557 500S751.2 44.4444444444445 500 44.4444444444445M500 1000C223.8666666666667 1000 0 776.1333333333333 0 500S223.8666666666667 0 500 0S1000 223.8666666666667 1000 500S776.1333333333333 1000 500 1000" />
    <glyph glyph-name="eye-2"
      unicode="&#xE00C;"
      horiz-adv-x="1000" d="M500 334.7777777777779C373 334.7777777777779 262.5777777777778 452.6666666666667 228.5777777777778 492.9333333333334C262.5777777777778 533.2 373 651.088888888889 500 651.088888888889C627 651.088888888889 737.4222222222221 533.2 771.4222222222222 492.9333333333334C737.4222222222221 452.6666666666667 627 334.7777777777779 500 334.7777777777779M817.8222222222222 506.2000000000001C812.0666666666666 513.9777777777779 674.8444444444444 695.5333333333334 500 695.5333333333334C325.1555555555555 695.5333333333334 187.9333333333333 513.9777777777779 182.1777777777778 506.2000000000001A22.2 22.2 0 0 1 182.1777777777778 479.6666666666667C187.9333333333333 471.9333333333335 325.1555555555556 290.3333333333335 500 290.3333333333335C674.8444444444444 290.3333333333335 812.0666666666666 471.9333333333335 817.8222222222222 479.6666666666667A22.2 22.2 0 0 1 817.8222222222222 506.2000000000001M570.8666666666667 515.1777777777779A43.48888888888889 43.48888888888889 0 0 0 527.3777777777777 558.6444444444445C527.3777777777777 572.3111111111111 533.8 584.3333333333334 543.6444444444444 592.3111111111111A103.55555555555557 103.55555555555557 0 0 1 500 602.1333333333334A104.44444444444444 104.44444444444444 0 1 1 604.4222222222221 497.7111111111113A102.66666666666669 102.66666666666669 0 0 1 599.8888888888888 526.488888888889A43.17777777777778 43.17777777777778 0 0 0 570.8666666666666 515.1777777777779M500 44.4444444444445C248.8 44.4444444444445 44.4444444444444 248.8 44.4444444444444 500S248.8 955.5555555555557 500 955.5555555555557S955.5555555555557 751.2 955.5555555555557 500S751.2 44.4444444444445 500 44.4444444444445M500 1000C223.8666666666667 1000 0 776.1333333333333 0 500S223.8666666666667 0 500 0S1000 223.8666666666667 1000 500S776.1333333333333 1000 500 1000" />
    <glyph glyph-name="eye"
      unicode="&#xE00D;"
      horiz-adv-x="1500" d="M750 109.6999999999999C454.4 109.6999999999999 197.4000000000001 400.7 118.2000000000002 500C197.4000000000001 599.4 454.4 890.3 750 890.3C1045.6 890.3 1302.6 599.3 1381.8 500C1302.6 400.6 1045.6 109.6999999999999 750 109.6999999999999M1489.8 532.7C1476.3999999999999 552 1157 1000 750 1000S23.6 551.9000000000001 10.2 532.7A57.5 57.5 0 0 1 10.2 467.3C23.6 448.2000000000001 343.0000000000001 0 750 0S1476.3999999999999 448.2000000000001 1489.8 467.3A57.5 57.5 0 0 1 1489.8 532.7M914.8999999999997 555C859 555 813.6999999999998 603 813.6999999999998 662.3C813.6999999999998 696 828.6999999999999 725.7 851.5999999999998 745.3A229.70000000000005 229.70000000000005 0 0 1 750 769.5C615.8 769.5 507.0000000000001 654.0999999999999 507.0000000000001 511.8S615.7 254 750 254S993 369.4 993 511.7C993 536.5 988.7 560 982.4999999999998 582.7A97.4 97.4 0 0 0 914.8999999999997 554.7" />
    <glyph glyph-name="filter"
      unicode="&#xE00E;"
      horiz-adv-x="1000" d="M426.36 78.4000000000001H573.64V560A30 30 0 0 0 581.1199999999999 579.84L898.96 940H101L418.88 579.84A30 30 0 0 0 426.36 560V78.4000000000001zM603.64 18.4000000000001H396.36A30 30 0 0 0 366.36 48.4000000000001V548.64L12.04 950.12A29.96 29.96 0 1 0 34.52 1000H965.48A30 30 0 0 0 987.96 950.12L633.6400000000001 548.64V48.4000000000001A30 30 0 0 0 603.6400000000001 18.4000000000001z" />
    <glyph glyph-name="localidad-2"
      unicode="&#xE00F;"
      horiz-adv-x="1071.4285714285716" d="M1037.1964285714287 11C1053.1250000000002 11 1066.125 24.0357142857142 1066.125 39.9642857142857V447.2142857142857C1066.125 463.1428571428571 1055.482142857143 483.7142857142857 1042.482142857143 492.8928571428571L833.8035714285716 640.2142857142858C820.8035714285716 649.4285714285714 799.5178571428573 649.4285714285714 786.482142857143 640.2142857142858L671.1250000000002 558.7857142857142C658.0892857142859 549.5714285714287 647.4821428571431 555.1071428571429 647.4821428571431 571.0357142857142V960A29.03571428571429 29.03571428571429 0 0 1 618.5178571428573 988.9285714285714H34.2678571428573A29.03571428571429 29.03571428571429 0 0 1 5.3035714285716 960V39.9285714285713C5.3035714285716 23.9999999999999 18.3392857142859 11 34.232142857143 11H1037.1607142857144z" />
    <glyph glyph-name="localidad"
      unicode="&#xE010;"
      horiz-adv-x="1083.3333333333333" d="M815.1041666666666 689.6666666666667A31.25 31.25 0 0 1 779.0625 689.6666666666667L671.6875 613.875V968.75A31.25 31.25 0 0 1 640.4375 1000H51.4375A31.25 31.25 0 0 1 20.1875 968.75V71.6250000000001C20.1875 54.375 34.1875 40.3750000000001 51.4375 40.3750000000001H387.1458333333333A31.25 31.25 0 0 1 387.1458333333333 102.8750000000001H82.6875V937.5H609.1874999999999V569.75L544.2291666666666 523.875A31.25 31.25 0 0 1 531.0208333333333 498.3333333333334V71.6250000000001A31.25 31.25 0 0 1 593.5208333333333 71.6250000000001V482.1666666666667L797.1041666666666 625.9166666666667L1000.6458333333331 482.1666666666669V102.8750000000001H727.4374999999998A31.25 31.25 0 1 1 727.4374999999998 40.3750000000001H1031.895833333333A31.25 31.25 0 0 1 1063.1458333333333 71.6250000000001V498.3333333333334A31.25 31.25 0 0 1 1049.9374999999998 523.875L815.1041666666666 689.6666666666667z" />
    <glyph glyph-name="logout"
      unicode="&#xE011;"
      horiz-adv-x="727.2727272727273" d="M724.5454545454545 447.2272727272728A34.68181818181818 34.68181818181818 0 0 0 718.3181818181818 437.818181818182C717.7272727272726 437.1818181818183 717.4999999999999 436.318181818182 716.8636363636363 435.6363636363637L565.1363636363636 283.9545454545455A35.45454545454545 35.45454545454545 0 0 0 539.9999999999999 273.5909090909091A35.45454545454545 35.45454545454545 0 0 0 514.8636363636363 283.9545454545455A35.63636363636363 35.63636363636363 0 0 0 514.8636363636363 334.2727272727273L605.9545454545454 425.2727272727273H305.8181818181818A35.54545454545454 35.54545454545454 0 0 0 305.8181818181818 496.3181818181818H605.9545454545454L514.8636363636364 587.4090909090908A35.59090909090909 35.59090909090909 0 0 0 565.1363636363636 637.6818181818181L716.8636363636364 485.9090909090908L717.1818181818181 485.4545454545454C720.2727272727273 482.2727272727271 722.7727272727273 478.5454545454545 724.5454545454546 474.3636363636363A35.45454545454545 35.45454545454545 0 0 0 727.0454545454546 461.9090909090909C727.0454545454546 461.5454545454545 727.2727272727273 461.2272727272726 727.2727272727273 460.8181818181819C727.2727272727273 460.5 727.0909090909091 460.2272727272727 727.0909090909091 459.909090909091A35.27272727272727 35.27272727272727 0 0 0 724.5454545454546 447.1818181818183zM623.2727272727273 248.9545454545455C642.8636363636363 248.9545454545455 658.7727272727273 233.0454545454545 658.7727272727273 213.4545454545455V106.4545454545456A89.86363636363636 89.86363636363636 0 0 0 569 16.6818181818182H89.7727272727273A89.86363636363636 89.86363636363636 0 0 0 0 106.4545454545454V910.2272727272727C0 959.7272727272727 40.2727272727273 1000 89.7727272727273 1000H568.9999999999999C618.5454545454545 1000 658.7727272727271 959.7272727272727 658.7727272727271 910.2272727272727V711.3636363636364A35.54545454545454 35.54545454545454 0 0 0 587.7272727272726 711.3636363636364V910.2272727272727A18.954545454545453 18.954545454545453 0 0 1 568.9999999999999 928.9090909090908H89.7727272727273A18.954545454545453 18.954545454545453 0 0 1 71.0909090909091 910.2272727272727V106.4545454545454C71.0909090909091 96.3181818181819 79.6363636363636 87.7272727272728 89.7727272727273 87.7272727272728H568.9999999999999A18.954545454545453 18.954545454545453 0 0 1 587.7272727272727 106.4545454545454V213.4545454545454C587.7272727272727 233.0454545454545 603.6363636363636 248.9545454545454 623.2727272727273 248.9545454545454z" />
    <glyph glyph-name="mail"
      unicode="&#xE012;"
      horiz-adv-x="1428.5714285714287" d="M714.2857142857143 500.4285714285714L253.7857142857143 869.2857142857142H1174.7857142857142L714.2857142857143 500.4285714285714zM1237.7142857142858 144.5714285714287H190.8571428571429C177.6428571428572 144.5714285714287 166.1428571428572 152.7142857142858 166.1428571428572 161.9285714285715V760.7142857142857L639.5714285714286 382.8571428571428A55.500000000000014 55.500000000000014 0 0 1 674.2857142857143 370.8571428571429L754.2857142857142 370.7857142857144C767 370.7857142857144 779.2857142857142 375.0714285714288 789 382.8571428571429L1262.5000000000002 760.8571428571429V162C1262.5000000000002 152.7857142857143 1250.9285714285716 144.6428571428571 1237.7142857142858 144.6428571428571zM1237.7142857142858 1000.0000000000002H190.8571428571429C101.0714285714286 1000 28 933.5714285714286 28 852V162C28 80.3571428571428 101.0714285714286 14.0000000000001 190.8571428571429 14.0000000000001H1237.7142857142858C1327.5000000000002 14.0000000000001 1400.5714285714287 80.357142857143 1400.5714285714287 161.9285714285715V852C1400.5714285714287 933.5714285714286 1327.5000000000002 1000 1237.7142857142858 1000z" />
    <glyph glyph-name="menu"
      unicode="&#xE013;"
      horiz-adv-x="1000.0000000000001" d="M919.4625 783C919.4625 761.9666666666667 902.4124999999998 744.9166666666666 881.3791666666667 744.9166666666666H118.6208333333333C97.5875 744.9166666666666 80.5375 761.9666666666667 80.5375 783L80.5375 783C80.5375 804.0333333333333 97.5875 821.0833333333334 118.6208333333333 821.0833333333334H881.3791666666667C902.4125 821.0833333333334 919.4625 804.0333333333333 919.4625 783L919.4625 783zM919.4625 498.95C919.4625 477.9166666666666 902.4124999999998 460.8666666666667 881.3791666666667 460.8666666666667H118.6208333333333C97.5875 460.8666666666667 80.5375 477.9166666666666 80.5375 498.95L80.5375 498.95C80.5375 519.9833333333333 97.5875 537.0333333333333 118.6208333333333 537.0333333333333H881.3791666666667C902.4125 537.0333333333333 919.4625 519.9833333333333 919.4625 498.95L919.4625 498.95zM919.4625 216.4833333333332C919.4625 195.4499999999999 902.4124999999998 178.3999999999999 881.3791666666667 178.3999999999999H118.6208333333333C97.5875 178.3999999999999 80.5375 195.4499999999999 80.5375 216.4833333333331L80.5375 216.4833333333331C80.5375 237.5166666666664 97.5875 254.5666666666664 118.6208333333333 254.5666666666664H881.3791666666667C902.4125 254.5666666666666 919.4625 237.5166666666666 919.4625 216.4833333333332L919.4625 216.4833333333332z" />
    <glyph glyph-name="note"
      unicode="&#xE014;"
      horiz-adv-x="772.7272727272727" d="M670.8409090909091 1000A34.09090909090909 34.09090909090909 0 0 1 670.8409090909091 931.8181818181818C680.4772727272727 931.8181818181818 688.6590909090909 923.6818181818182 688.6590909090909 914V114.5909090909091C688.6590909090909 104.9090909090909 680.4772727272727 96.7727272727274 670.8409090909091 96.7727272727274H101.8409090909091A18.045454545454547 18.045454545454547 0 0 0 84.0681818181818 114.5909090909091V914C84.0681818181818 923.6818181818182 92.25 931.8181818181818 101.8409090909091 931.8181818181818A34.09090909090909 34.09090909090909 0 0 1 101.8409090909091 1000A86.0909090909091 86.0909090909091 0 0 1 15.8863636363636 914V114.5909090909091C15.8863636363636 67.1818181818183 54.4318181818181 28.5909090909092 101.8409090909091 28.5909090909092H670.8409090909091A86.0909090909091 86.0909090909091 0 0 1 756.8409090909091 114.5909090909091V914A86.0909090909091 86.0909090909091 0 0 1 670.8409090909091 1000zM211.5681818181818 931.8181818181818H561.1136363636364A34.09090909090909 34.09090909090909 0 0 1 561.1136363636364 1000H211.5681818181818A34.09090909090909 34.09090909090909 0 0 1 211.5681818181818 931.8181818181818zM211.5681818181818 597.6363636363636H561.1136363636364A34.09090909090909 34.09090909090909 0 0 1 561.1136363636364 665.8181818181818H211.5681818181818A34.09090909090909 34.09090909090909 0 0 1 211.5681818181818 597.6363636363636zM340.4318181818182 816.3636363636364A34.09090909090909 34.09090909090909 0 0 1 340.4318181818182 748.1818181818182H432.3863636363637A34.09090909090909 34.09090909090909 0 0 1 432.3863636363637 816.3636363636364H340.4318181818182zM211.6136363636363 403.0454545454546H561.1590909090909A34.09090909090909 34.09090909090909 0 0 1 561.1590909090909 471.2272727272727H211.6136363636362A34.09090909090909 34.09090909090909 0 0 1 211.6136363636362 403.0454545454546zM211.6136363636363 208.409090909091H561.1590909090909A34.09090909090909 34.09090909090909 0 0 1 561.1590909090909 276.5909090909091H211.6136363636362A34.09090909090909 34.09090909090909 0 0 1 211.6136363636362 208.409090909091z" />
    <glyph glyph-name="pass"
      unicode="&#xE015;"
      horiz-adv-x="1050" d="M350 727.8A66.1 66.1 0 0 1 260.3 727.8A57.75 57.75 0 0 1 260.3 643A66.1 66.1 0 0 1 349.9500000000001 643A57.75 57.75 0 0 1 349.9500000000001 727.8M773.05 136.9L705.85 200.5H599.1999999999999V327.7000000000001H464.6999999999999V428.5L409 481.2L381.0500000000001 472.35C294.8000000000001 444.9500000000001 201.3 465.7 137.0500000000001 526.45C44.4000000000001 614.1000000000001 44.4000000000001 756.7500000000001 137.0500000000001 844.3500000000001C229.7000000000001 932 380.5500000000001 932 473.2499999999999 844.3500000000001C537.5 783.6000000000001 559.4000000000001 695.1500000000001 530.45 613.6500000000001L521.05 587.1500000000001L885.1 242.9000000000001V136.9000000000002H773.1zM980.2 280.15L628.9 612.4C655.85 718.55 623.25 829.65 540.45 907.95C410.7 1030.7 199.6 1030.7 69.8 907.95C-59.95 785.2499999999999 -59.95 585.55 69.8 462.85C149.5 387.5 261.3 356.15 369.7 376.6V237.75H504.1V110.6H666.4499999999999L733.7 47.0000000000001H980.2V280.1500000000001z" />
    <glyph glyph-name="phone"
      unicode="&#xE016;"
      horiz-adv-x="2500" d="M1985.75 951.5833333333334C1948.4166666666663 978.1666666666666 1880.4166666666667 1000 1834.5833333333333 1000H665.4166666666666C619.5833333333334 1000 551.5833333333333 978.1666666666666 514.25 951.5833333333334L67.8333333333333 633.25C30.5 606.6666666666667 0 547.3333333333333 0 501.5V91.6666666666667C0 45.8333333333333 37.5 8.3333333333334 83.3333333333333 8.3333333333334H553.6666666666666C599.5 8.3333333333334 637 45.8333333333333 637 91.6666666666667V340.0833333333335C637 385.9166666666668 674.4999999999999 423.4166666666668 720.3333333333333 423.4166666666668H1779.6666666666667C1825.5 423.4166666666668 1863 385.9166666666668 1863 340.0833333333335V91.6666666666667C1863 45.8333333333333 1900.5 8.3333333333334 1946.3333333333333 8.3333333333334H2416.6666666666665C2462.5 8.3333333333334 2500 45.8333333333333 2500 91.6666666666667V501.5C2500 547.3333333333333 2469.5 606.6666666666666 2432.1666666666665 633.25L1985.75 951.5833333333334z" />
    <glyph glyph-name="police"
      unicode="&#xE017;"
      horiz-adv-x="1041.6666666666665" d="M286.0416666666664 882.4166666666666A6.874999999999999 6.874999999999999 0 0 0 290.3749999999998 885.625L470.1249999999998 931.3333333333334A199.49999999999997 199.49999999999997 0 0 0 519.6249999999997 937.5C536.9166666666664 937.5 554.3333333333331 935.3333333333334 571.3749999999998 931L750.958333333333 884.3333333333334A12.833333333333332 12.833333333333332 0 0 0 755.6249999999997 879.5C756.458333333333 877.7083333333334 756.8749999999998 873.125 756.333333333333 870.9583333333334L711.2916666666665 730A30.624999999999996 30.624999999999996 0 0 1 709.7916666666664 720.5C709.7916666666664 685.375 628.9583333333331 646.0833333333334 520.7916666666664 646.0833333333334C403.7083333333332 646.0833333333334 331.8749999999998 690.125 331.8749999999998 721.75A31.16666666666667 31.16666666666667 0 0 1 330.3333333333332 731.3333333333334L285.3333333333332 870.6666666666666A30.249999999999993 30.249999999999993 0 0 0 286.0416666666664 882.4166666666666zM269.5416666666664 716.25C274.4583333333332 640.2083333333334 380.7916666666664 583.5416666666667 520.7916666666664 583.5416666666667C663.2499999999998 583.5416666666667 767.4583333333331 638.5000000000001 772.1666666666664 715.0416666666667L816.1249999999998 852.4166666666667C816.1249999999998 852.6666666666667 816.2499999999998 852.8333333333334 816.333333333333 853.125C821.7083333333331 871.5833333333334 819.2499999999998 893.9583333333334 809.9583333333331 910.3333333333334C799.9583333333331 927.7500000000002 784.2916666666664 940.2916666666669 766.9166666666664 944.7916666666669L586.9999999999998 991.5A267.8333333333333 267.8333333333333 0 0 1 454.7083333333331 991.9166666666666L274.9583333333332 946.2083333333334A69.91666666666666 69.91666666666666 0 0 1 231.7083333333331 913.375C221.2916666666664 895.125 220.6666666666665 869.2083333333334 225.6249999999999 852.3333333333334L269.5416666666664 716.25zM333.2916666666664 291.4583333333335L120.6666666666665 202.2916666666668C101.9166666666665 193.5833333333334 86.8333333333331 179.0833333333335 78.9166666666665 162.9583333333335L13.2916666666665 47.1250000000001A31.208333333333332 31.208333333333332 0 1 1 67.6666666666665 16.3333333333334L134.0833333333331 133.6666666666666A26.29166666666666 26.29166666666666 0 0 0 145.9583333333331 145.1249999999999L357.4583333333332 233.7916666666667A31.25 31.25 0 1 1 333.2916666666664 291.4583333333333M1028.3749999999998 47.1249999999999L963.5833333333331 161.4583333333333A90.41666666666666 90.41666666666666 0 0 1 919.9166666666662 202.7916666666666L708.3749999999998 291.4583333333333A31.25 31.25 0 0 1 684.2083333333333 233.7916666666667L894.6666666666666 145.6249999999999A28.66666666666666 28.66666666666666 0 0 0 908.4166666666666 132.1666666666666L974 16.3333333333333A31.25 31.25 0 1 1 1028.375 47.1666666666665M756.0833333333333 538.2499999999998A31.25 31.25 0 0 1 693.5833333333333 538.2499999999998C693.5833333333333 415.0833333333332 616.125 314.8749999999999 520.8333333333333 314.8749999999999C425.5833333333333 314.8749999999999 348.0833333333333 415.0833333333332 348.0833333333333 538.2083333333331A31.25 31.25 0 0 1 285.5833333333333 538.2083333333331C285.5833333333333 380.6249999999998 391.1249999999999 252.3749999999999 520.8333333333333 252.3749999999999C650.5833333333333 252.3749999999999 756.0833333333333 380.6249999999998 756.0833333333333 538.2083333333331M405.9166666666665 709.3333333333334H635.7916666666664A31.25 31.25 0 0 1 635.7916666666664 771.8333333333334H405.8749999999998A31.25 31.25 0 0 1 405.8749999999998 709.3333333333334" />
    <glyph glyph-name="trash-2"
      unicode="&#xE018;"
      horiz-adv-x="1000" d="M650.1777777777777 192.2222222222222H349.8222222222223L306.2222222222222 659.0666666666666H693.7333333333332L650.1777777777777 192.2222222222222zM718.1555555555556 703.5111111111111H281.8666666666666A22.2 22.2 0 0 1 259.7333333333333 679.2444444444444L307.4444444444444 167.9333333333333C308.5333333333333 156.511111111111 318.1111111111111 147.7777777777776 329.5777777777778 147.7777777777776H670.4222222222221A22.22222222222222 22.22222222222222 0 0 1 692.5555555555554 167.9333333333331L740.2888888888888 679.2666666666664A22.22222222222222 22.22222222222222 0 0 1 718.1555555555553 703.5333333333331zM423.4222222222222 229.5777777777779C423.8666666666666 229.5777777777779 424.3555555555556 229.5777777777779 424.8 229.6222222222224A22.22222222222222 22.22222222222222 0 0 1 445.6222222222222 253.1777777777781L424.1777777777778 600.8444444444447A22.35555555555555 22.35555555555555 0 0 1 400.6222222222223 621.6666666666669A22.266666666666666 22.266666666666666 0 0 1 379.8222222222223 598.1111111111113L401.2666666666667 250.4222222222224A22.22222222222222 22.22222222222222 0 0 1 423.4222222222223 229.5777777777779M575.1999999999999 229.6222222222224L576.5777777777778 229.5777777777779A22.22222222222222 22.22222222222222 0 0 1 598.7555555555556 250.4666666666667L620.1777777777778 598.1111111111111A22.22222222222222 22.22222222222222 0 1 1 575.8222222222223 600.8444444444444L554.3777777777779 253.1777777777778A22.22222222222222 22.22222222222222 0 0 1 575.2 229.6222222222223M718.1333333333333 785.3333333333334H522.2222222222222V830A22.22222222222222 22.22222222222222 0 1 1 477.7777777777778 830V785.3333333333334H281.8444444444445A22.22222222222222 22.22222222222222 0 1 1 281.8444444444445 740.8888888888889H718.1333333333333A22.22222222222222 22.22222222222222 0 1 1 718.1333333333333 785.3333333333334M500 44.4444444444445C248.8 44.4444444444445 44.4444444444444 248.8 44.4444444444444 500S248.8 955.5555555555557 500 955.5555555555557S955.5555555555557 751.2 955.5555555555557 500S751.2 44.4444444444445 500 44.4444444444445M500 1000C223.8666666666667 1000 0 776.1333333333333 0 500S223.8666666666667 0 500 0S1000 223.8666666666667 1000 500S776.1333333333333 1000 500 1000" />
    <glyph glyph-name="trash"
      unicode="&#xE019;"
      horiz-adv-x="680.5555555555555" d="M555.2777777777777 61.2777777777778H125.2777777777777L63.0138888888888 728.3611111111112H617.5694444444443L555.2777777777777 61.2777777777778zM650.5555555555555 788.4861111111112H29.986111111111A30.097222222222218 30.097222222222218 0 0 1 0.0416666666666 755.6111111111112L67.9583333333333 28.4027777777778A30.083333333333332 30.083333333333332 0 0 1 97.8888888888888 1.1388888888889H582.6944444444445A30.11111111111111 30.11111111111111 0 0 1 612.6388888888889 28.4027777777778L680.5138888888889 755.625A30.194444444444446 30.194444444444446 0 0 1 672.8055555555555 778.6666666666667A30.180555555555554 30.180555555555554 0 0 1 650.5555555555555 788.4861111111111zM231.3333333333334 117.5C231.9722222222223 117.5 232.5833333333334 117.5 233.2222222222223 117.5416666666666A30.11111111111111 30.11111111111111 0 0 1 261.4027777777777 149.4027777777777L230.9305555555556 643.8888888888889C229.888888888889 660.4861111111111 215.1805555555556 673.1527777777778 199.0694444444444 672.0694444444443A30.05555555555555 30.05555555555555 0 0 1 170.8749999999999 640.2361111111111L201.3472222222222 145.7361111111111A30.083333333333332 30.083333333333332 0 0 1 231.3472222222223 117.5138888888888M447.3472222222223 117.5694444444444A30.11111111111111 30.11111111111111 0 0 1 479.2222222222223 145.75L509.6805555555557 640.2222222222222A30.11111111111111 30.11111111111111 0 0 1 481.5000000000001 672.0833333333333A29.888888888888893 29.888888888888893 0 0 1 449.6388888888891 643.9027777777777L419.1666666666669 149.4027777777777A30.02777777777778 30.02777777777778 0 0 1 447.3611111111113 117.5694444444444M29.986111111111 844.7083333333334H650.5277777777778A30.05555555555555 30.05555555555555 0 1 1 650.5277777777778 904.8472222222222H370.3333333333333V969.9166666666666A30.069444444444443 30.069444444444443 0 0 1 310.2083333333333 969.9166666666666V904.8194444444443H29.9999999999999A30.069444444444443 30.069444444444443 0 0 1 29.9999999999999 844.6805555555555" />
    <glyph glyph-name="user-2"
      unicode="&#xE01A;"
      horiz-adv-x="866.6666666666667" d="M852.1833333333334 34.3333333333333C840.45 236.3000000000001 726.1166666666668 404.6 570.3833333333334 468.1666666666667C570.35 468.1666666666667 570.35 468.1666666666667 570.3833333333334 468.1666666666667A283.7333333333334 283.7333333333334 0 0 1 712.9500000000002 764.6666666666667C692.7500000000002 886.9 590.95 983.4 467.9166666666668 997.9666666666666A283.7 283.7 0 0 1 149.7500000000001 716.4000000000001A283.4333333333334 283.4333333333334 0 0 1 296.3166666666668 468.1666666666667C140.5500000000001 404.6 26.2166666666667 236.2666666666667 14.4833333333334 34.3333333333333C13.3833333333334 15.5666666666667 29.05 -1e-13 47.8166666666667 -1e-13H818.8166666666667C837.6166666666668 -1e-13 853.2833333333334 15.5999999999999 852.1500000000001 34.3333333333333" />
    <glyph glyph-name="user-3"
      unicode="&#xE01B;"
      horiz-adv-x="1000" d="M552.6739130434783 424.1304347826088A257.2173913043478 257.2173913043478 0 0 1 638.7608695652175 616.0869565217392A257.39130434782606 257.39130434782606 0 0 1 381.6304347826088 873.1739130434784A257.4347826086956 257.4347826086956 0 0 1 124.5 616.0869565217391C124.5 541.9130434782609 156.5434782608696 472.3478260869565 210.6304347826088 424.1304347826087C92.7608695652174 351.304347826087 16.6739130434783 207.5217391304348 16.6739130434783 48.9130434782609C16.6739130434783 30.9130434782608 31.2826086956522 16.3043478260869 49.2826086956522 16.3043478260869H509.8478260869566A32.608695652173914 32.608695652173914 0 0 1 509.8478260869566 81.5217391304348H83.108695652174C93.7173913043479 221.8695652173914 172.3695652173913 343.1739130434783 285.4565217391305 389.3478260869565A32.608695652173914 32.608695652173914 0 0 1 288.9782608695653 448.0434782608695A192.13043478260866 192.13043478260866 0 0 0 189.7173913043479 616.0869565217391A192.17391304347825 192.17391304347825 0 0 0 381.6304347826088 807.9565217391305A192.13043478260866 192.13043478260866 0 0 0 573.5434782608697 616.0869565217391A192.17391304347825 192.17391304347825 0 0 0 474.3260869565218 448.0434782608695A32.69565217391305 32.69565217391305 0 0 1 457.5434782608697 417.6086956521739A32.73913043478261 32.73913043478261 0 0 1 477.804347826087 389.3478260869565C599.5869565217392 339.6521739130434 681.413043478261 202.8260869565216 681.413043478261 48.9130434782609A32.608695652173914 32.608695652173914 0 0 1 746.6304347826087 48.9130434782609C746.6304347826087 207.5217391304348 670.5434782608697 351.3478260869565 552.6739130434785 424.1304347826088zM901.0652173913044 1000H356.8478260869566A82.34782608695652 82.34782608695652 0 0 1 274.6304347826088 917.7391304347826A32.608695652173914 32.608695652173914 0 0 1 339.8478260869566 917.7391304347826C339.8478260869566 927 347.6304347826088 934.7826086956522 356.804347826087 934.7826086956522H901.0652173913044C910.2826086956522 934.7826086956522 918.1086956521742 927 918.1086956521742 917.7391304347826V48.9130434782609A32.608695652173914 32.608695652173914 0 1 1 983.3260869565217 48.9130434782609V917.7391304347826A82.34782608695652 82.34782608695652 0 0 1 901.0217391304348 1000z" />
    <glyph glyph-name="user"
      unicode="&#xE01C;"
      horiz-adv-x="875" d="M825.2708333333333 13.875A31.25 31.25 0 0 0 794.0208333333333 45.125C794.0208333333333 227.4166666666667 696.8541666666665 389.5833333333333 552.2291666666665 448.5833333333333A31.374999999999993 31.374999999999993 0 0 0 532.8125 475.6666666666666A31.416666666666668 31.416666666666668 0 0 0 548.8958333333333 504.875A230.8333333333333 230.8333333333333 0 0 1 668.1458333333333 706.7916666666666A230.9583333333333 230.9583333333333 0 0 1 437.4791666666667 937.5A230.99999999999994 230.99999999999994 0 0 1 206.7708333333333 706.7916666666667A230.8333333333333 230.8333333333333 0 0 1 326.0625 504.8750000000001A31.291666666666668 31.291666666666668 0 0 0 322.6875 448.5833333333335C186.4375 392.9583333333335 92.3125 245.7083333333335 81.8958333333333 76.3750000000001H587.0208333333333A31.25 31.25 0 0 0 587.0208333333333 13.8750000000001H49.7291666666667A31.25 31.25 0 0 0 18.4791666666667 45.1250000000001C18.4791666666667 231.3333333333335 109.3958333333334 399.8333333333335 249.4791666666667 481.9166666666669A293.33333333333326 293.33333333333326 0 0 0 144.2708333333334 706.7916666666667A293.54166666666663 293.54166666666663 0 0 0 437.4791666666667 1000C599.1458333333333 1000 730.6458333333333 868.4583333333334 730.6458333333333 706.7916666666667A293.29166666666663 293.29166666666663 0 0 0 625.4791666666665 481.9166666666666C765.5625 399.8333333333333 856.5208333333333 231.3749999999999 856.5208333333333 45.125A31.25 31.25 0 0 0 825.2708333333333 13.875" />
  </font>
</defs>
</svg>
